<svg width="106" height="49" viewBox="0 0 106 49" fill="none" xmlns="http://www.w3.org/2000/svg">
<path d="M54.76 42.704C54.76 43.472 54.5893 44.304 54.248 45.2C53.9067 46.096 53.4373 46.8427 52.84 47.44C52.2853 48.08 51.6027 48.4 50.792 48.4C49.8533 48.4 49.0213 47.9733 48.296 47.12C47.6133 46.2667 47.0373 45.2853 46.568 44.176C46.0987 43.1093 45.736 42.192 45.48 41.424C45.0533 40.0587 44.7333 38.4373 44.52 36.56C44.3067 34.6827 44.072 32.8053 43.816 30.928C43.6027 29.008 43.2613 27.344 42.792 25.936L42.728 21.008C41.9173 21.0933 41.128 21.2 40.36 21.328C39.592 21.456 38.9307 21.5627 38.376 21.648C37.0533 21.8613 35.7947 22.1173 34.6 22.416C33.4053 22.7147 32.2107 23.0347 31.016 23.376C30.248 25.3387 29.5013 27.3013 28.776 29.264C28.0933 31.2267 27.048 33.2533 25.64 35.344C24.7013 36.752 23.4853 38.0747 21.992 39.312C20.4987 40.5493 18.792 41.552 16.872 42.32C14.9947 43.088 12.968 43.472 10.792 43.472C8.44533 43.472 6.52533 42.9173 5.032 41.808C3.58133 40.6987 2.51467 39.184 1.832 37.264C1.14933 35.344 0.808 33.168 0.808 30.736C0.808 30.224 0.893333 29.6053 1.064 28.88C1.23467 28.1547 1.448 27.472 1.704 26.832C1.96 26.192 2.19467 25.744 2.408 25.488C2.83467 24.848 3.38933 24.1013 4.072 23.248C4.75467 22.3947 5.48 21.6267 6.248 20.944C7.05867 20.2187 7.86933 19.728 8.68 19.472C9.192 19.3013 9.81067 19.0453 10.536 18.704C11.304 18.3627 12.1573 18.192 13.096 18.192C14.1627 18.192 15.1653 18.4907 16.104 19.088C18.1093 20.3253 19.6667 21.84 20.776 23.632C21.928 25.424 22.504 27.4507 22.504 29.712C22.504 31.76 21.992 33.168 20.968 33.936C19.944 34.704 18.472 35.1947 16.552 35.408C16.1253 35.4507 15.784 35.3227 15.528 35.024C15.272 34.7253 15.144 34.4267 15.144 34.128C15.144 33.7867 15.2293 33.5093 15.4 33.296C15.6133 33.04 15.9333 32.8907 16.36 32.848C17.4267 32.7627 18.408 32.5493 19.304 32.208C20.2 31.8667 20.648 31.0987 20.648 29.904C20.648 28.112 20.1787 26.2773 19.24 24.4C18.3013 22.5227 17.0213 21.072 15.4 20.048C14.76 19.664 14.12 19.472 13.48 19.472C12.6693 19.472 11.9013 19.6427 11.176 19.984C10.4933 20.3253 9.98133 20.56 9.64 20.688C8.70133 20.944 7.82667 21.648 7.016 22.8C6.20533 23.952 5.544 25.232 5.032 26.64C4.52 28.0053 4.264 29.2427 4.264 30.352C4.264 33.2107 4.92533 35.536 6.248 37.328C7.61333 39.12 9.46933 40.144 11.816 40.4C12.1147 40.4427 12.392 40.4853 12.648 40.528C12.9467 40.528 13.2453 40.528 13.544 40.528C15.9333 40.528 18.0453 39.9947 19.88 38.928C21.7573 37.8187 23.2293 36.4533 24.296 34.832C25.576 32.9547 26.5147 31.12 27.112 29.328C27.752 27.536 28.392 25.744 29.032 23.952C28.3493 24.1227 27.6667 24.3147 26.984 24.528C26.3013 24.6987 25.5973 24.8693 24.872 25.04C24.4027 25.1253 24.0187 25.04 23.72 24.784C23.464 24.4853 23.336 24.144 23.336 23.76C23.336 23.0773 23.6773 22.6507 24.36 22.48C25.3413 22.2667 26.3013 22.0747 27.24 21.904C28.1787 21.6907 29.1173 21.4987 30.056 21.328C30.1413 21.1147 30.2267 20.9227 30.312 20.752C30.3973 20.5813 30.4827 20.4107 30.568 20.24C31.1227 19.1307 31.4853 17.9787 31.656 16.784C31.8693 15.5893 32.104 14.416 32.36 13.264C32.616 12.112 33.1067 11.0667 33.832 10.128C34.0453 9.82933 34.3227 9.38133 34.664 8.784C35.0053 8.144 35.3467 7.504 35.688 6.864C36.072 6.224 36.3493 5.75467 36.52 5.456C36.904 4.816 37.2027 4.13333 37.416 3.408C37.672 2.68267 38.0347 2.064 38.504 1.552C38.9733 1.04 39.6987 0.783997 40.68 0.783997C41.576 0.783997 42.28 1.25333 42.792 2.192C43.3467 3.13066 43.7733 4.26133 44.072 5.584C44.4133 6.90666 44.6693 8.208 44.84 9.488C45.0533 10.768 45.2667 11.728 45.48 12.368L45.544 17.104L45.992 18.512V18.896C46.6747 18.8107 47.144 18.7467 47.4 18.704C48.0827 18.576 48.424 18.6827 48.424 19.024C48.424 19.2373 48.2747 19.4933 47.976 19.792C47.6773 20.0907 47.272 20.2827 46.76 20.368C46.5893 20.4107 46.3333 20.4747 45.992 20.56L46.056 23.248C46.3973 24.272 46.5893 25.5947 46.632 27.216C46.6747 28.8373 46.696 30.5013 46.696 32.208C46.696 33.9147 46.7173 35.5787 46.76 37.2C46.8453 38.7787 47.0373 40.0587 47.336 41.04C47.5493 41.5947 47.7627 42.2987 47.976 43.152C48.1893 44.048 48.488 44.8373 48.872 45.52C49.256 46.2027 49.768 46.544 50.408 46.544C51.176 46.544 51.7733 46.288 52.2 45.776C52.6693 45.264 52.904 44.624 52.904 43.856C52.904 43.2587 53.0533 42.768 53.352 42.384C53.6507 42.0427 53.9493 41.872 54.248 41.872C54.5893 41.872 54.76 42.1493 54.76 42.704ZM42.664 19.088L42.152 17.552L41.96 12.368C41.7467 11.2587 41.512 10.1707 41.256 9.104C41 7.99467 40.7013 7.09866 40.36 6.416C40.0613 5.69066 39.6987 5.328 39.272 5.328C38.9307 5.328 38.5467 5.60533 38.12 6.16C37.9067 6.45867 37.6507 6.928 37.352 7.568C37.0533 8.208 36.7547 8.848 36.456 9.488C36.2 10.0853 35.9653 10.5333 35.752 10.832C35.0693 11.728 34.5787 12.7307 34.28 13.84C33.9813 14.9493 33.704 16.08 33.448 17.232C33.192 18.384 32.7867 19.4933 32.232 20.56L32.04 20.944C33.0213 20.7733 34.0027 20.6027 34.984 20.432C35.9653 20.2613 36.968 20.0907 37.992 19.92C38.5467 19.8347 39.2293 19.7493 40.04 19.664C40.8933 19.536 41.768 19.408 42.664 19.28V19.088ZM69.2445 36.24C68.9032 37.008 68.1565 37.9253 67.0045 38.992C65.8952 40.0587 64.5725 40.9973 63.0365 41.808C61.5432 42.576 60.0285 42.96 58.4925 42.96C56.2738 42.96 54.7805 42.32 54.0125 41.04C53.2445 39.7173 52.8605 37.9467 52.8605 35.728C52.8605 34.2347 52.9885 32.4 53.2445 30.224C53.5005 28.048 53.8845 25.7013 54.3965 23.184C54.9085 20.6667 55.5485 18.128 56.3165 15.568C57.0845 13.136 57.9165 10.768 58.8125 8.464C59.7085 6.16 61.0525 4.15467 62.8445 2.448C63.1432 1.97867 63.5272 1.744 63.9965 1.744C64.3805 1.744 64.7218 1.91467 65.0205 2.256C65.3192 2.55466 65.4472 2.91733 65.4045 3.344C65.4045 3.344 65.3832 3.87733 65.3405 4.944C65.3405 6.01066 65.2765 7.312 65.1485 8.848C65.0205 10.3413 64.8285 11.7707 64.5725 13.136C64.1885 15.44 63.4845 17.872 62.4605 20.432C61.4792 22.992 60.4338 25.3173 59.3245 27.408C58.4285 29.1573 57.7032 30.416 57.1485 31.184C56.6365 31.952 56.2312 32.5067 55.9325 32.848C55.6765 33.1893 55.4845 33.6373 55.3565 34.192C55.3138 34.4907 55.2712 34.832 55.2285 35.216C55.2285 35.5573 55.2285 35.92 55.2285 36.304C55.2285 37.072 55.2712 37.8187 55.3565 38.544C55.4845 39.2267 55.6338 39.6747 55.8045 39.888C56.2738 40.3573 56.7858 40.6987 57.3405 40.912C57.8952 41.1253 58.4498 41.232 59.0045 41.232C59.4738 41.232 59.9005 41.168 60.2845 41.04C61.7352 40.6133 63.2072 39.9093 64.7005 38.928C66.2365 37.9467 67.3245 36.9867 67.9645 36.048C68.2632 35.6213 68.4978 35.344 68.6685 35.216C68.8818 35.0453 69.0525 34.96 69.1805 34.96C69.3938 34.96 69.5005 35.1093 69.5005 35.408C69.5005 35.4933 69.4792 35.6213 69.4365 35.792C69.3938 35.92 69.3298 36.0693 69.2445 36.24ZM63.4205 6.032C62.9938 5.94667 62.3112 6.88533 61.3725 8.848C60.4765 10.8107 59.5378 13.4773 58.5565 16.848C58.2578 17.872 57.9165 19.1733 57.5325 20.752C57.1912 22.3307 56.8498 23.9733 56.5085 25.68C56.1672 27.344 55.9112 28.8587 55.7405 30.224C57.1058 27.4507 58.3432 24.9547 59.4525 22.736C60.5618 20.5173 61.4152 18.448 62.0125 16.528C62.5672 14.992 62.9725 13.3493 63.2285 11.6C63.5272 9.85066 63.6765 8.464 63.6765 7.44C63.6765 6.62933 63.5912 6.16 63.4205 6.032ZM80.772 16.144C80.4733 16.144 80.1747 16.1013 79.876 16.016C79.62 15.888 79.364 15.7387 79.108 15.568C78.5533 15.312 78.276 14.7573 78.276 13.904C78.276 13.52 78.3613 13.0933 78.532 12.624C78.7453 12.1547 79.0653 11.7067 79.492 11.28C79.7907 10.9813 80.1533 10.832 80.58 10.832C80.964 10.832 81.3267 10.9813 81.668 11.28C81.8387 11.4507 81.9453 11.728 81.988 12.112C82.0733 12.4533 82.116 12.8373 82.116 13.264C82.116 13.776 82.0733 14.288 81.988 14.8C81.9027 15.2693 81.7533 15.6107 81.54 15.824C81.2413 16.0373 80.9853 16.144 80.772 16.144ZM74.244 41.296C72.6653 41.296 71.5773 40.9333 70.98 40.208C70.3827 39.4827 70.084 38.608 70.084 37.584C70.084 37.1147 70.1267 36.6453 70.212 36.176C70.2973 35.7067 70.404 35.2373 70.532 34.768C70.1053 35.536 69.444 36.432 68.548 37.456C67.652 38.4373 66.82 39.2267 66.052 39.824C65.8813 39.952 65.7107 40.016 65.54 40.016C65.284 40.016 65.156 39.8667 65.156 39.568C65.156 39.2267 65.284 38.928 65.54 38.672C67.332 36.7947 68.6973 35.28 69.636 34.128C70.5747 32.9333 71.3 31.9307 71.812 31.12C72.324 30.3093 72.8147 29.5627 73.284 28.88C73.668 27.6427 74.0093 26.448 74.308 25.296C74.6493 24.1013 75.1613 22.8853 75.844 21.648C76.0573 21.264 76.484 21.072 77.124 21.072C77.5507 21.072 77.9347 21.1787 78.276 21.392C78.6173 21.6053 78.788 21.968 78.788 22.48C78.788 22.736 78.724 23.0347 78.596 23.376C78.1267 24.6987 77.6147 25.8293 77.06 26.768C76.548 27.664 75.8653 28.816 75.012 30.224C74.116 31.6747 73.3907 33.0827 72.836 34.448C72.324 35.8133 72.068 36.9653 72.068 37.904C72.068 38.5013 72.196 38.992 72.452 39.376C72.7507 39.76 73.1773 39.952 73.732 39.952C74.9267 39.9947 75.844 39.8027 76.484 39.376C77.124 38.9067 77.6573 38.4587 78.084 38.032C78.6387 37.4347 79.108 36.88 79.492 36.368C79.9187 35.856 80.3027 35.408 80.644 35.024C80.9 34.768 81.028 34.8107 81.028 35.152C81.028 35.3653 80.964 35.6427 80.836 35.984C80.7507 36.3253 80.644 36.5813 80.516 36.752C80.0893 37.3493 79.5773 38.0107 78.98 38.736C78.4253 39.4613 77.764 40.08 76.996 40.592C76.228 41.0613 75.3107 41.296 74.244 41.296ZM91.6885 37.776C90.6218 39.1413 89.6192 40.1013 88.6805 40.656C87.7418 41.2107 86.8458 41.552 85.9925 41.68C85.1392 41.7653 84.2432 41.808 83.3045 41.808C81.8538 41.808 80.7232 41.3387 79.9125 40.4C79.1445 39.4187 78.7178 38.288 78.6325 37.008C78.5898 36.1547 78.6325 35.1307 78.7605 33.936C78.9312 32.7413 79.3578 31.44 80.0405 30.032C80.6805 28.7093 81.3632 27.7493 82.0885 27.152C82.8138 26.512 83.5178 26.064 84.2005 25.808C84.8832 25.552 85.4378 25.3387 85.8645 25.168C86.2058 25.04 86.5685 24.976 86.9525 24.976C87.8058 24.976 88.4885 25.1893 89.0005 25.616C89.2138 25.7867 89.3418 26.0213 89.3845 26.32C89.4698 26.576 89.5125 26.8533 89.5125 27.152C89.5125 27.3227 89.4912 27.5147 89.4485 27.728C89.4485 27.8987 89.4272 28.0693 89.3845 28.24C89.2992 28.7947 89.0432 29.52 88.6165 30.416C88.2325 31.2693 87.8698 32.1013 87.5285 32.912C87.2725 33.168 86.9952 33.296 86.6965 33.296C86.3552 33.296 86.2698 33.104 86.4405 32.72C86.6538 31.8667 86.9312 31.1627 87.2725 30.608C87.6565 30.0107 87.8485 29.4987 87.8485 29.072C87.8912 28.944 87.9125 28.816 87.9125 28.688C87.9125 28.56 87.9125 28.4533 87.9125 28.368C87.9125 27.7707 87.6565 27.3653 87.1445 27.152C86.8885 27.0667 86.6965 27.024 86.5685 27.024C86.0138 27.024 85.3738 27.28 84.6485 27.792C83.9232 28.304 83.3258 29.008 82.8565 29.904C82.3018 30.8853 81.8965 31.9947 81.6405 33.232C81.4272 34.4693 81.3205 35.5147 81.3205 36.368C81.3205 37.392 81.6832 38.2453 82.4085 38.928C83.1765 39.568 84.0938 39.8453 85.1605 39.76C86.3552 39.632 87.5072 39.312 88.6165 38.8C89.7685 38.288 90.7498 37.4987 91.5605 36.432C91.6885 36.3467 91.8165 36.304 91.9445 36.304C92.0725 36.304 92.1365 36.3893 92.1365 36.56C92.1365 36.7307 92.0725 36.9653 91.9445 37.264C91.8592 37.52 91.7738 37.6907 91.6885 37.776ZM105.805 34.192C105.25 35.1307 104.546 36.1547 103.693 37.264C102.84 38.3307 101.944 39.248 101.005 40.016C100.109 40.784 99.2557 41.168 98.445 41.168C97.1223 41.168 96.077 41.104 95.309 40.976C94.5837 40.8053 93.9863 40.5707 93.517 40.272C92.7063 39.7173 92.045 38.992 91.533 38.096C91.021 37.2 90.7223 36.2827 90.637 35.344C90.5943 35.088 90.573 34.832 90.573 34.576C90.573 34.32 90.573 34.0853 90.573 33.872C90.573 31.3547 91.0637 29.136 92.045 27.216C93.0263 25.296 94.413 24.144 96.205 23.76C96.7597 23.6747 97.1863 23.9093 97.485 24.464C97.7837 24.976 97.933 25.68 97.933 26.576C97.933 27.9413 97.5703 29.4133 96.845 30.992C96.5463 31.632 96.2263 32.2507 95.885 32.848C95.5863 33.4027 95.3303 33.8507 95.117 34.192C94.5623 35.0027 94.1357 35.5573 93.837 35.856C93.581 36.112 93.453 36.368 93.453 36.624C93.453 37.3067 93.8797 37.968 94.733 38.608C95.5863 39.248 96.909 39.568 98.701 39.568C99.3837 39.568 100.088 39.2693 100.813 38.672C101.538 38.0747 102.242 37.328 102.925 36.432C103.65 35.536 104.29 34.64 104.845 33.744C105.101 33.3173 105.336 33.104 105.549 33.104C105.805 33.104 105.933 33.296 105.933 33.68C105.933 33.8507 105.89 34.0213 105.805 34.192ZM96.205 26.128C96.0343 25.872 95.6717 25.936 95.117 26.32C94.605 26.6613 94.1357 27.472 93.709 28.752C93.4103 29.6907 93.261 30.7787 93.261 32.016C93.261 32.3573 93.261 32.6987 93.261 33.04C93.3037 33.3813 93.3463 33.7227 93.389 34.064C94.1143 32.8267 94.6263 31.9093 94.925 31.312C95.2663 30.672 95.5223 30.0107 95.693 29.328C95.7783 28.9867 95.9063 28.56 96.077 28.048C96.2903 27.536 96.397 27.088 96.397 26.704C96.397 26.448 96.333 26.256 96.205 26.128Z" fill="#BA0F0F" fill-opacity="0.58"/>
</svg>
